<?xml version="1.0" encoding="UTF-8" standalone="no"?>
<svg
   xmlns:dc="http://purl.org/dc/elements/1.1/"
   xmlns:cc="http://creativecommons.org/ns#"
   xmlns:rdf="http://www.w3.org/1999/02/22-rdf-syntax-ns#"
   xmlns:svg="http://www.w3.org/2000/svg"
   xmlns="http://www.w3.org/2000/svg"
   viewBox="0 0 1109.3333 261.33334"
   height="261.33334"
   width="1109.3333"
   xml:space="preserve"
   id="svg2"
   version="1.1"><metadata
     id="metadata8"><rdf:RDF><cc:Work
         rdf:about=""><dc:format>image/svg+xml</dc:format><dc:type
           rdf:resource="http://purl.org/dc/dcmitype/StillImage" /></cc:Work></rdf:RDF></metadata><defs
     id="defs6"><clipPath
       id="clipPath50"
       clipPathUnits="userSpaceOnUse"><path
         id="path48"
         d="M 0,196 H 832 V 0 H 0 Z" /></clipPath></defs><g
     transform="matrix(1.3333333,0,0,-1.3333333,0,261.33333)"
     id="g10"><g
       transform="translate(393.458,180.2695)"
       id="g12"><path
         id="path14"
         style="fill:#fbc707;fill-opacity:1;fill-rule:nonzero;stroke:none"
         d="m 0,0 h -35.632 v -54.264 l -9.891,-9.891 -30.974,0.108 8.884,-35.633 h 22.09 l 9.891,-10.106 v -53.515 -0.426 H 0 v 66.595 L -15.161,-81.863 0,-66.702 Z" /></g><g
       transform="translate(246.0171,180.2695)"
       id="g16"><path
         id="path18"
         style="fill:#231f20;fill-opacity:1;fill-rule:nonzero;stroke:none"
         d="M 0,0 -31.95,-128.146 H -58.4 v -35.581 h 17.578 17.754 17.879 L 35.633,0 Z" /></g><g
       transform="translate(84.2534,116.2227)"
       id="g20"><path
         id="path22"
         style="fill:#fbc707;fill-opacity:1;fill-rule:nonzero;stroke:none"
         d="M 0,0 -8.884,-35.633 H 222.249 L 213.365,0 Z" /></g><g
       transform="translate(205.1953,16.543)"
       id="g24"><path
         id="path26"
         style="fill:#231f20;fill-opacity:1;fill-rule:nonzero;stroke:none"
         d="m 0,0 h -35.632 l -40.822,163.727 h 35.633 z" /></g><g
       transform="translate(52.5684,16.543)"
       id="g28"><path
         id="path30"
         style="fill:#231f20;fill-opacity:1;fill-rule:nonzero;stroke:none"
         d="M 0,0 H 0.283 35.635 L 51.604,64.047 H 15.97 Z" /></g><g
       transform="translate(146.6909,180.2695)"
       id="g32"><path
         id="path34"
         style="fill:#231f20;fill-opacity:1;fill-rule:nonzero;stroke:none"
         d="m 0,0 h -35.333 -17.966 l -15.969,-64.047 h 35.633 l 7.097,28.466 H 0 Z" /></g><g
       transform="translate(341.8564,80.5898)"
       id="g36"><path
         id="path38"
         style="fill:#231f20;fill-opacity:1;fill-rule:nonzero;stroke:none"
         d="M 0,0 -8.884,35.633 -24.853,99.68 H -46.045 -81.378 V 64.099 h 29.764 L -44.516,35.633 -35.632,0 -19.664,-64.047 h 35.527 0.106 z" /></g><g
       transform="translate(76.9683,116.2227)"
       id="g40"><path
         id="path42"
         style="fill:#fbc707;fill-opacity:1;fill-rule:nonzero;stroke:none"
         d="m 0,0 -14.575,-0.108 -9.997,9.323 -0.001,-10e-4 V 64.047 H -60.205 V -1.98 L -44.37,-17.816 -60.205,-33.192 V -99.68 h 35.351 0.281 v 1.128 53.274 h 0.001 l 9.997,9.538 5.69,0.107 H 26.748 L 35.632,0 Z" /></g><g
       id="g44"><g
         clip-path="url(#clipPath50)"
         id="g46"><g
           transform="translate(766.7627,158.8369)"
           id="g52"><path
             id="path54"
             style="fill:#231f20;fill-opacity:1;fill-rule:nonzero;stroke:none"
             d="m 0,0 c 0,3.004 -1.169,5.224 -3.505,6.661 -2.338,1.435 -5.608,2.152 -9.815,2.152 h -4.708 V -9.915 h 4.007 c 4.406,0 7.844,0.867 10.315,2.604 C -1.236,-5.576 0,-3.139 0,0 m 15.824,0.301 c 0,-4.475 -1.252,-8.381 -3.756,-11.718 -2.503,-3.34 -5.994,-5.876 -10.466,-7.612 L 23.536,-45.27 H 3.306 l -18.328,23.136 h -3.006 V -45.27 h -16.425 v 66.703 h 21.232 c 4.14,0 7.979,-0.435 11.518,-1.302 3.539,-0.869 6.611,-2.171 9.215,-3.906 2.604,-1.737 4.64,-3.923 6.108,-6.56 1.469,-2.639 2.204,-5.759 2.204,-9.364" /></g><path
           id="path56"
           style="fill:#231f20;fill-opacity:1;fill-rule:nonzero;stroke:none"
           d="m 815.236,113.567 h -16.425 v 66.702 h 16.425 z" /><g
           transform="translate(495.2695,113.5674)"
           id="g58"><path
             id="path60"
             style="fill:#231f20;fill-opacity:1;fill-rule:nonzero;stroke:none"
             d="M 0,0 V 27.142 H -30.912 V 0 h -16.425 v 66.702 h 16.425 V 40.563 H 0 V 66.702 H 16.426 L 16.426,0 Z" /></g><g
           transform="translate(558.0664,137.8047)"
           id="g62"><path
             id="path64"
             style="fill:#231f20;fill-opacity:1;fill-rule:nonzero;stroke:none"
             d="M 0,0 V -24.237 H -16.426 V 0 l -21.933,42.465 h 17.527 L -8.213,14.422 4.406,42.465 h 17.527 z" /></g><g
           transform="translate(632.6807,113.5674)"
           id="g66"><path
             id="path68"
             style="fill:#231f20;fill-opacity:1;fill-rule:nonzero;stroke:none"
             d="M 0,0 H -15.825 L -28.845,37.357 -30.848,0 h -16.124 l 5.007,66.702 h 14.822 L -7.913,14.936 11.316,66.702 H 26.14 L 31.147,0 H 15.022 L 13.02,37.357 Z" /></g><g
           transform="translate(676.5469,180.2695)"
           id="g70"><path
             id="path72"
             style="fill:#231f20;fill-opacity:1;fill-rule:nonzero;stroke:none"
             d="M 0,0 H 41.564 V -13.02 H 16.426 V -26.44 H 40.362 V -39.46 H 16.426 v -14.222 h 25.439 v -13.02 H 0 Z" /></g><g
           transform="translate(735.2197,83.1445)"
           id="g74"><path
             id="path76"
             style="fill:#231f20;fill-opacity:1;fill-rule:nonzero;stroke:none"
             d="m 0,0 v -53.598 h 24.5 v -13 H -16.399 V 0 Z" /></g><g
           transform="translate(494.8584,16.543)"
           id="g78"><path
             id="path80"
             style="fill:#231f20;fill-opacity:1;fill-rule:nonzero;stroke:none"
             d="m 0,0 h -15.8 l -12.999,37.302 -2,-37.298 h -16.098 l 4.999,66.598 h 14.799 L -7.9,14.916 11.299,66.602 H 26.098 L 31.099,0.004 H 14.998 l -2,37.298 z" /></g><g
           transform="translate(538.6553,83.1445)"
           id="g82"><path
             id="path84"
             style="fill:#231f20;fill-opacity:1;fill-rule:nonzero;stroke:none"
             d="M 0,0 H 41.498 V -13 H 16.399 V -26.399 H 40.298 V -39.398 H 16.399 v -14.2 h 25.399 v -13 H 0 Z" /></g><g
           transform="translate(640.8486,83.1445)"
           id="g86"><path
             id="path88"
             style="fill:#231f20;fill-opacity:1;fill-rule:nonzero;stroke:none"
             d="m 0,0 v -11.707 h -17.898 v -54.891 h -16.4 v 54.891 H -52.196 V 0 Z" /></g><g
           transform="translate(666.1475,42.4463)"
           id="g90"><path
             id="path92"
             style="fill:#231f20;fill-opacity:1;fill-rule:nonzero;stroke:none"
             d="M 0,0 H 17.1 L 8.6,28.098 Z M 21.299,-13 H -4.199 L -8.3,-25.899 H -25.198 L -0.4,40.698 H 17.599 L 42.397,-25.899 H 25.499 Z" /></g><g
           transform="translate(815.2363,36.5938)"
           id="g94"><path
             id="path96"
             style="fill:#231f20;fill-opacity:1;fill-rule:nonzero;stroke:none"
             d="m 0,0 c 0,-2.902 -0.577,-5.62 -1.73,-8.157 -1.155,-2.539 -2.819,-4.746 -4.994,-6.625 -2.175,-1.879 -4.813,-3.363 -7.91,-4.449 -3.098,-1.088 -6.625,-1.632 -10.58,-1.632 -3.626,0 -7.253,0.395 -10.877,1.186 -3.626,0.791 -6.987,1.944 -10.085,3.461 l 3.263,12.36 c 2.307,-1.122 4.909,-2.094 7.811,-2.917 2.9,-0.825 6.032,-1.236 9.394,-1.236 2.769,0 5.042,0.509 6.822,1.532 1.78,1.021 2.67,2.686 2.67,4.994 0,1.647 -0.776,3.146 -2.324,4.499 -1.55,1.35 -4.367,2.784 -8.454,4.3 -6.461,2.439 -11.173,5.224 -14.139,8.356 -2.967,3.131 -4.45,7.135 -4.45,12.014 0,6.393 2.092,11.271 6.279,14.634 4.185,3.361 9.969,5.043 17.353,5.043 3.758,0 7.349,-0.413 10.777,-1.236 3.428,-0.825 6.328,-1.896 8.701,-3.215 l -2.768,-12.16 c -2.309,1.119 -4.828,2.025 -7.564,2.718 -2.736,0.693 -5.554,1.038 -8.454,1.038 -2.439,0 -4.4,-0.411 -5.884,-1.235 -1.482,-0.826 -2.224,-2.226 -2.224,-4.204 0,-0.923 0.132,-1.714 0.395,-2.373 0.263,-0.658 0.743,-1.285 1.434,-1.878 0.692,-0.593 1.664,-1.186 2.917,-1.78 1.251,-0.593 2.833,-1.285 4.746,-2.076 2.769,-1.121 5.372,-2.308 7.812,-3.56 2.437,-1.252 4.548,-2.703 6.328,-4.35 1.78,-1.648 3.18,-3.527 4.202,-5.636 C -0.512,5.306 0,2.834 0,0" /></g></g></g></g></svg>