<?xml version="1.0" standalone="no"?>
<!DOCTYPE svg PUBLIC "-//W3C//DTD SVG 20010904//EN"
 "http://www.w3.org/TR/2001/REC-SVG-20010904/DTD/svg10.dtd">
<svg version="1.0" xmlns="http://www.w3.org/2000/svg"
 width="250.000000pt" height="250.000000pt" viewBox="0 0 250.000000 250.000000"
 preserveAspectRatio="xMidYMid meet">

<g transform="translate(0.000000,250.000000) scale(0.100000,-0.100000)"
fill="#000000" stroke="none">
<path d="M320 1250 l0 -1250 925 0 925 0 0 1250 0 1250 -925 0 -925 0 0 -1250z
m1830 85 l0 -1135 -85 0 -85 0 0 435 c0 283 -3 435 -10 435 -5 0 -10 8 -10 18
0 14 2 15 10 2 7 -11 10 -3 10 28 0 39 -2 43 -20 37 -13 -4 -22 -1 -26 10 -6
14 -9 14 -30 0 -13 -8 -25 -15 -26 -15 -2 0 -4 45 -5 100 -1 92 0 100 18 100
10 0 19 4 19 9 0 5 -9 7 -21 4 -19 -5 -20 -2 -17 58 3 63 15 90 30 66 6 -9 8
-9 8 0 0 7 7 10 15 7 8 -4 15 -1 15 6 0 9 -11 11 -34 7 -34 -5 -36 -3 -27 46
0 4 11 7 24 7 20 -1 20 -2 5 -11 -27 -15 -22 -29 10 -28 l27 1 -25 8 c-17 5
-19 8 -7 9 10 1 17 9 17 22 0 18 -4 21 -29 16 l-28 -6 -2 303 -2 303 50 -11
c31 -6 52 -16 54 -25 3 -9 5 30 6 87 l1 102 -720 0 -720 0 0 -102 c0 -90 2
-100 14 -82 8 10 17 16 21 13 3 -4 22 -3 41 1 31 7 35 6 40 -17 7 -27 -4 -514
-11 -522 -3 -2 -5 3 -5 13 0 11 -4 15 -13 10 -8 -5 -7 -2 2 9 18 23 12 27 -40
30 l-44 2 -3 -58 c-3 -52 -1 -58 20 -66 17 -6 26 -4 35 8 10 14 11 13 6 -7 -6
-24 -23 -41 -23 -23 0 6 -9 11 -20 11 -20 0 -21 -5 -20 -142 1 -79 1 -382 0
-674 l0 -532 -22 -3 c-13 -2 -58 -3 -102 -1 l-78 4 3 986 c2 543 5 1053 7
1135 l3 147 900 0 899 0 0 -1135z m-1445 905 c3 -5 1 -10 -4 -10 -6 0 -11 5
-11 10 0 6 2 10 4 10 3 0 8 -4 11 -10z m545 0 c0 -5 -5 -10 -11 -10 -5 0 -7 5
-4 10 3 6 8 10 11 10 2 0 4 -4 4 -10z m30 0 c0 -5 -5 -10 -11 -10 -5 0 -7 5
-4 10 3 6 8 10 11 10 2 0 4 -4 4 -10z m-83 -6 c-3 -3 -12 -4 -19 -1 -8 3 -5 6
6 6 11 1 17 -2 13 -5z m210 0 c-3 -3 -12 -4 -19 -1 -8 3 -5 6 6 6 11 1 17 -2
13 -5z m100 0 c-3 -3 -12 -4 -19 -1 -8 3 -5 6 6 6 11 1 17 -2 13 -5z m56 -1
c-7 -2 -19 -2 -25 0 -7 3 -2 5 12 5 14 0 19 -2 13 -5z m70 0 c-7 -2 -19 -2
-25 0 -7 3 -2 5 12 5 14 0 19 -2 13 -5z m224 -165 c-2 -13 -4 -5 -4 17 -1 22
1 32 4 23 2 -10 2 -28 0 -40z m-617 -14 c0 -8 -4 -12 -10 -9 -5 3 -10 10 -10
16 0 5 5 9 10 9 6 0 10 -7 10 -16z m-521 -248 c-1 -127 -4 -256 -8 -286 l-7
-55 -8 43 c-4 23 -11 40 -16 37 -5 -3 -9 109 -9 249 l-2 253 26 -4 25 -5 -1
-232z m1140 -41 c0 -151 -5 -277 -10 -281 -5 -3 -6 1 -3 9 3 8 -2 14 -11 14
-11 0 -15 -12 -16 -41 -2 -38 -2 -37 -9 14 -5 30 -8 169 -9 308 l-1 252 30 0
30 0 -1 -275z m-647 177 c1 -49 3 -55 5 -24 4 43 18 53 41 30 9 -9 12 -9 12 0
0 16 23 11 32 -8 4 -10 7 -4 7 15 1 17 6 37 11 45 9 13 11 13 20 0 6 -9 10
-10 10 -3 0 16 137 5 166 -14 11 -7 23 -10 27 -7 3 3 12 2 19 -2 7 -5 19 -9
25 -10 23 -4 73 -29 73 -37 0 -5 4 -6 8 -3 14 9 59 -38 77 -79 11 -28 16 -67
16 -125 0 -47 3 -130 6 -185 6 -81 8 -92 14 -60 7 46 9 -1030 2 -1087 -4 -32
-9 -38 -29 -38 -17 0 -22 -4 -18 -15 4 -9 0 -15 -9 -15 -9 0 -33 -16 -54 -35
-21 -19 -43 -35 -50 -35 -6 0 -18 -6 -25 -13 -11 -11 -40 -27 -58 -32 -31 -8
-50 -18 -50 -27 0 -6 -10 -8 -25 -4 -14 4 -33 2 -43 -3 -11 -6 -33 -6 -55 -1
-20 4 -35 5 -33 1 3 -4 1 -13 -3 -19 -13 -22 -21 322 -23 1002 -1 358 -3 635
-5 614 -2 -20 -11 -39 -18 -42 -8 -3 -14 -2 -14 2 1 4 1 24 0 45 -1 51 -21 38
-21 -14 0 -60 -16 -46 -27 24 -7 44 -11 -162 -12 -729 0 -435 -4 -812 -7 -837
-6 -40 -8 -44 -21 -31 -8 8 -25 14 -38 14 -13 0 -25 3 -28 8 -2 4 -2 1 -1 -5
5 -19 -24 -16 -35 4 -7 14 -12 15 -24 5 -22 -18 -166 -20 -204 -2 -18 8 -33
21 -33 27 0 7 -10 13 -22 13 -19 0 -20 2 -8 10 13 8 13 10 -1 10 -20 0 -31 34
-16 49 8 8 6 11 -6 11 -14 0 -17 10 -19 53 -1 38 -3 29 -8 -38 -8 -107 -3
1001 5 1260 4 99 11 184 16 190 5 5 9 17 9 28 0 25 42 97 58 97 6 0 12 5 12
10 0 6 7 10 15 10 9 0 18 6 21 14 3 7 17 14 32 14 40 0 87 12 90 23 2 5 11 5
23 -1 12 -7 19 -7 19 -1 0 6 7 8 15 5 8 -4 15 -1 15 6 0 6 5 8 10 5 6 -4 8
-12 4 -18 -3 -7 0 -5 8 3 9 10 27 14 56 12 26 -2 42 1 42 8 0 6 5 8 10 5 6 -3
11 -36 12 -73z m-625 -294 c-3 -8 -6 -5 -6 6 -1 11 2 17 5 13 3 -3 4 -12 1
-19z m-7 -28 c0 -5 -2 -10 -4 -10 -3 0 -8 5 -11 10 -3 6 -1 10 4 10 6 0 11 -4
11 -10z m64 -19 c-2 -3 -12 3 -22 13 -16 17 -16 18 5 5 12 -7 20 -15 17 -18z
m-34 -1 c0 -5 -2 -10 -4 -10 -3 0 -8 5 -11 10 -3 6 -1 10 4 10 6 0 11 -4 11
-10z m26 -67 c-2 -3 -6 -3 -9 -1 -3 2 -15 -6 -28 -17 l-24 -20 18 21 c9 11 24
21 32 21 8 0 13 -2 11 -4z m27 -23 c3 -11 1 -18 -4 -14 -5 3 -9 12 -9 20 0 20
7 17 13 -6z m-33 -26 c-7 -7 -18 -10 -25 -8 -11 5 -11 9 -2 19 16 17 42 8 27
-11z m0 -36 c0 -4 -4 -8 -9 -8 -6 0 -12 4 -15 8 -3 5 1 9 9 9 8 0 15 -4 15 -9z
m-32 -23 c-3 -3 -9 2 -12 12 -6 14 -5 15 5 6 7 -7 10 -15 7 -18z m1259 3 c-3
-8 -6 -5 -6 6 -1 11 2 17 5 13 3 -3 4 -12 1 -19z m-1207 -17 c0 -6 -4 -12 -8
-15 -5 -3 -9 1 -9 9 0 8 4 15 9 15 4 0 8 -4 8 -9z m-15 -121 c17 -8 16 -8 -7
-7 -16 1 -28 5 -28 9 0 10 9 9 35 -2z m15 -40 c0 -5 -2 -10 -4 -10 -3 0 -8 5
-11 10 -3 6 -1 10 4 10 6 0 11 -4 11 -10z m-50 -22 c0 -14 -15 -16 -27 -3 -10
11 -9 13 7 12 11 -1 20 -5 20 -9z m11 -31 c-10 -9 -11 -8 -5 6 3 10 9 15 12
12 3 -3 0 -11 -7 -18z m59 -18 c0 -5 -5 -7 -10 -4 -6 3 -17 -1 -26 -9 -16 -17
-39 -12 -28 5 3 5 9 7 14 4 5 -3 11 -1 15 5 8 13 35 13 35 -1z m-45 -57 c-3
-3 -11 0 -18 7 -9 10 -8 11 6 5 10 -3 15 -9 12 -12z m1263 -13 c-3 -40 -18
-49 -18 -11 0 25 7 42 17 42 2 0 2 -14 1 -31z m36 13 c3 -5 -1 -9 -9 -9 -8 0
-12 4 -9 9 3 4 7 8 9 8 2 0 6 -4 9 -8z m-1328 -29 c-4 -9 -1 -20 6 -25 9 -5
10 -8 1 -8 -6 0 -14 4 -17 9 -6 10 3 41 11 41 3 0 2 -8 -1 -17z m656 0 c-5
-10 -7 -24 -5 -30 3 -7 -2 -13 -9 -13 -10 0 -15 11 -15 30 0 23 5 30 19 30 15
0 17 -4 10 -17z m45 -13 c0 -17 -4 -26 -7 -19 -6 8 -9 7 -13 -2 -3 -8 -6 1 -6
19 -1 20 4 32 12 32 9 0 14 -12 14 -30z m-673 -78 c2 -4 -4 -8 -14 -8 -10 0
-16 4 -14 8 3 4 9 8 14 8 5 0 11 -4 14 -8z m44 -37 c-3 -3 -9 2 -12 12 -6 14
-5 15 5 6 7 -7 10 -15 7 -18z m1232 -99 c0 -3 -4 -8 -10 -11 -5 -3 -10 -1 -10
4 0 6 5 11 10 11 6 0 10 -2 10 -4z m-17 -56 c-3 -12 -8 -19 -11 -16 -5 6 5 36
12 36 2 0 2 -9 -1 -20z m-1216 -162 c-3 -8 -6 -5 -6 6 -1 11 2 17 5 13 3 -3 4
-12 1 -19z m586 -505 c-7 -2 -19 -2 -25 0 -7 3 -2 5 12 5 14 0 19 -2 13 -5z
m44 1 c-3 -3 -12 -4 -19 -1 -8 3 -5 6 6 6 11 1 17 -2 13 -5z m728 -53 c42 -19
75 -46 75 -62 0 -12 -287 -12 -295 0 -5 9 62 61 95 74 30 11 86 6 125 -12z"/>
<path d="M1972 1850 c0 -14 2 -19 5 -12 2 6 2 18 0 25 -3 6 -5 1 -5 -13z"/>
<path d="M1946 1831 c-4 -7 -5 -15 -2 -18 9 -9 19 4 14 18 -4 11 -6 11 -12 0z"/>
<path d="M1906 1811 c-13 -15 -14 -20 -4 -24 10 -4 10 -8 -2 -17 -13 -10 -12
-11 3 -6 11 3 16 2 12 -4 -3 -6 3 -10 14 -10 10 0 26 -3 35 -6 12 -5 16 0 15
22 0 24 -2 26 -8 10 -7 -19 -8 -19 -13 2 -4 12 -11 22 -17 22 -6 0 -7 -8 -4
-17 6 -16 5 -16 -10 -4 -13 10 -14 18 -6 32 12 24 7 24 -15 0z"/>
<path d="M542 1725 c0 -16 2 -22 5 -12 2 9 2 23 0 30 -3 6 -5 -1 -5 -18z"/>
<path d="M1889 1743 c0 -5 -2 -18 -3 -30 -2 -17 3 -23 16 -23 23 0 23 9 1 27
-16 13 -16 14 -1 9 12 -3 15 -1 11 10 -5 15 -22 20 -24 7z"/>
<path d="M1938 1733 c7 -3 16 -2 19 1 4 3 -2 6 -13 5 -11 0 -14 -3 -6 -6z"/>
<path d="M1969 1713 c0 -11 -3 -13 -6 -5 -2 6 -11 12 -20 12 -13 0 -13 -2 1
-15 20 -21 36 -19 36 5 0 25 -10 27 -11 3z"/>
<path d="M620 1700 c0 -5 5 -10 11 -10 5 0 7 5 4 10 -3 6 -8 10 -11 10 -2 0
-4 -4 -4 -10z"/>
<path d="M1902 1668 c-15 -15 -16 -42 -2 -33 6 4 8 10 5 15 -3 4 1 10 7 13 7
2 10 7 7 10 -3 4 -11 1 -17 -5z"/>
<path d="M1969 1663 c0 -11 -3 -13 -6 -5 -7 19 -22 14 -20 -7 2 -33 32 -32 34
1 1 15 0 28 -2 28 -3 0 -5 -8 -6 -17z"/>
<path d="M1910 1625 c0 -4 8 -15 18 -24 10 -9 19 -27 19 -41 0 -51 3 -60 18
-60 18 0 20 37 3 42 -8 3 -12 19 -10 41 2 20 -1 37 -6 37 -6 0 -17 3 -26 6 -9
3 -16 3 -16 -1z"/>
<path d="M1972 1580 c0 -14 2 -19 5 -12 2 6 2 18 0 25 -3 6 -5 1 -5 -13z"/>
<path d="M1950 1481 c0 -5 -3 -18 -7 -28 -6 -16 -5 -16 10 -4 11 8 17 9 17 3
0 -6 -9 -16 -21 -22 -17 -10 -18 -14 -7 -28 9 -12 7 -12 -10 2 -22 19 -22 19
-23 0 0 -19 -1 -19 -8 0 -7 18 -8 18 -14 2 -10 -24 -9 -25 11 -22 26 4 67 -25
50 -35 -10 -7 -8 -9 5 -9 16 0 17 -2 3 -15 -21 -22 -29 -18 -24 10 6 31 -8 43
-17 15 -7 -23 3 -63 14 -56 4 3 12 -4 19 -14 7 -12 8 -21 2 -25 -6 -3 -10 0
-10 8 0 8 -9 17 -21 20 -12 3 -19 9 -16 14 2 4 1 17 -4 28 -7 19 -8 19 -8 -2
-1 -12 -4 -30 -7 -40 -5 -15 -4 -15 5 -3 8 11 10 6 8 -25 -1 -22 -6 -43 -12
-47 -6 -5 -5 -8 3 -8 10 0 10 -5 1 -22 -12 -22 -11 -22 7 -8 10 8 24 21 29 28
8 10 11 8 12 -9 2 -27 6 -31 27 -23 14 5 16 24 16 126 0 77 -4 117 -10 113 -5
-3 -10 1 -10 9 0 8 5 18 10 21 16 10 12 55 -5 55 -8 0 -15 -4 -15 -9z m-26
-237 c-1 -14 -5 -28 -8 -31 -4 -4 -2 45 3 55 5 10 8 -3 5 -24z m44 -33 c2 -15
0 -21 -7 -16 -6 3 -8 11 -5 17 4 6 0 15 -7 20 -12 8 -11 9 1 5 8 -2 17 -14 18
-26z"/>
<path d="M1915 1470 c-4 -6 -11 -7 -17 -4 -6 4 -6 -1 1 -14 14 -27 28 -35 36
-22 3 5 -1 10 -9 10 -9 0 -16 5 -16 11 0 5 4 8 9 4 5 -3 12 -1 15 4 4 5 2 12
-3 15 -5 4 -12 2 -16 -4z"/>
</g>
</svg>
